# xmcd CD database file
#
# Track frame offsets:
#	150
#	36583
#	53125
#	71838
#	93613
#	112155
#	128333
#
# Disc length: 1839 seconds
#
# Revision: 0
# Processed by: cddbd v1.5.1PL0 Copyright (c) Steve Scherf et al.
# Submitted via: CDex 1.51
#
DISCID=65072d07
DTITLE=TIME FIVE - CHRISTMAS SONGS
DYEAR=1900
DGENRE=Jazz
TTITLE0=THE MEDLEY OF CHRISTMAS CAROLS
TTITLE1=WINTER WONDERLAND
TTITLE2=CHRISTMAS SONG
TTITLE3=JINGLE BELLS
TTITLE4=THE BELLS OF PEACE
TTITLE5=CHRISTMAS IS FOR THE CHILDREN
TTITLE6=SILENT NIGHT
EXTD=
EXTT0=
EXTT1=
EXTT2=
EXTT3=
EXTT4=
EXTT5=
EXTT6=
PLAYORDER=
